<mxfile host="app.diagrams.net" modified="2023-03-01T03:31:19.617Z" agent="5.0 (Windows NT 10.0; Win64; x64) AppleWebKit/537.36 (KHTML, like Gecko) Chrome/100.0.4896.127 Safari/537.36" etag="AcdJLluhAV610u183hq6" version="20.8.23" type="github">
  <diagram name="第 1 页" id="t_XzjsrGjOTr3vuiqm34">
    <mxGraphModel dx="1430" dy="737" grid="1" gridSize="10" guides="1" tooltips="1" connect="1" arrows="1" fold="1" page="1" pageScale="1" pageWidth="827" pageHeight="1169" math="0" shadow="0">
      <root>
        <mxCell id="0" />
        <mxCell id="1" parent="0" />
        <mxCell id="sKilx8R5C69KUGso1vn--2" value="主机指纹跳变" style="rounded=1;whiteSpace=wrap;html=1;fontSize=14;fillColor=#f5f5f5;strokeColor=#666666;fontColor=#333333;" vertex="1" parent="1">
          <mxGeometry x="320" y="170" width="110" height="40" as="geometry" />
        </mxCell>
        <mxCell id="sKilx8R5C69KUGso1vn--3" value="拓扑动态异构" style="rounded=1;whiteSpace=wrap;html=1;fontSize=14;fillColor=#f8cecc;strokeColor=#b85450;" vertex="1" parent="1">
          <mxGeometry x="500" y="263.75" width="110" height="40" as="geometry" />
        </mxCell>
        <mxCell id="sKilx8R5C69KUGso1vn--4" value="系统管理子系统" style="rounded=1;whiteSpace=wrap;html=1;fontSize=14;fillColor=#e1d5e7;strokeColor=#9673a6;" vertex="1" parent="1">
          <mxGeometry x="500" y="380" width="110" height="40" as="geometry" />
        </mxCell>
        <mxCell id="sKilx8R5C69KUGso1vn--5" value="动态感知反制" style="rounded=1;whiteSpace=wrap;html=1;fontSize=14;fillColor=#f5f5f5;fontColor=#333333;strokeColor=#666666;" vertex="1" parent="1">
          <mxGeometry x="320" y="380" width="110" height="40" as="geometry" />
        </mxCell>
        <mxCell id="sKilx8R5C69KUGso1vn--6" value="" style="verticalLabelPosition=bottom;sketch=0;aspect=fixed;html=1;verticalAlign=top;strokeColor=#b85450;align=center;outlineConnect=0;shape=mxgraph.citrix.license_server;fontSize=14;fillColor=#f8cecc;" vertex="1" parent="1">
          <mxGeometry x="178.72" y="271.88" width="41.58" height="54.37" as="geometry" />
        </mxCell>
        <mxCell id="sKilx8R5C69KUGso1vn--7" value="探测主机" style="text;html=1;strokeColor=none;fillColor=none;align=center;verticalAlign=middle;whiteSpace=wrap;rounded=0;fontSize=12;" vertex="1" parent="1">
          <mxGeometry x="174.51000000000002" y="340" width="50" height="20" as="geometry" />
        </mxCell>
        <mxCell id="sKilx8R5C69KUGso1vn--9" style="edgeStyle=orthogonalEdgeStyle;rounded=0;orthogonalLoop=1;jettySize=auto;html=1;exitX=1;exitY=0.5;exitDx=0;exitDy=0;fontSize=14;" edge="1" parent="1" source="sKilx8R5C69KUGso1vn--8" target="sKilx8R5C69KUGso1vn--2">
          <mxGeometry relative="1" as="geometry" />
        </mxCell>
        <mxCell id="sKilx8R5C69KUGso1vn--10" style="edgeStyle=orthogonalEdgeStyle;rounded=0;orthogonalLoop=1;jettySize=auto;html=1;exitX=0.25;exitY=1;exitDx=0;exitDy=0;fontSize=14;" edge="1" parent="1" source="sKilx8R5C69KUGso1vn--8" target="sKilx8R5C69KUGso1vn--6">
          <mxGeometry relative="1" as="geometry" />
        </mxCell>
        <mxCell id="sKilx8R5C69KUGso1vn--8" value="拟态变形数据流" style="text;html=1;strokeColor=none;fillColor=none;align=center;verticalAlign=middle;whiteSpace=wrap;rounded=0;fontSize=14;" vertex="1" parent="1">
          <mxGeometry x="170" y="175" width="110" height="30" as="geometry" />
        </mxCell>
        <mxCell id="sKilx8R5C69KUGso1vn--12" value="" style="rounded=1;whiteSpace=wrap;html=1;fontSize=12;dashed=1;" vertex="1" parent="1">
          <mxGeometry x="320" y="260" width="90" height="60" as="geometry" />
        </mxCell>
        <mxCell id="sKilx8R5C69KUGso1vn--15" value="" style="rounded=1;whiteSpace=wrap;html=1;fontSize=12;dashed=1;fillColor=#d5e8d4;strokeColor=#82b366;" vertex="1" parent="1">
          <mxGeometry x="330" y="267.5" width="40" height="45" as="geometry" />
        </mxCell>
        <mxCell id="sKilx8R5C69KUGso1vn--16" value="" style="verticalLabelPosition=bottom;sketch=0;aspect=fixed;html=1;verticalAlign=top;strokeColor=none;align=center;outlineConnect=0;shape=mxgraph.citrix.license_server;fontSize=14;" vertex="1" parent="1">
          <mxGeometry x="339.48999999999995" y="276.25" width="21.03" height="27.5" as="geometry" />
        </mxCell>
        <mxCell id="sKilx8R5C69KUGso1vn--17" value="" style="rounded=1;whiteSpace=wrap;html=1;fontSize=12;fontStyle=1;dashed=1;fillColor=#ffe6cc;strokeColor=#d79b00;" vertex="1" parent="1">
          <mxGeometry x="380" y="267.5" width="20" height="22.5" as="geometry" />
        </mxCell>
        <mxCell id="sKilx8R5C69KUGso1vn--18" value="" style="verticalLabelPosition=bottom;sketch=0;aspect=fixed;html=1;verticalAlign=top;strokeColor=none;align=center;outlineConnect=0;shape=mxgraph.citrix.license_server;fontSize=14;" vertex="1" parent="1">
          <mxGeometry x="384.74" y="271.88" width="10.52" height="13.75" as="geometry" />
        </mxCell>
        <mxCell id="sKilx8R5C69KUGso1vn--19" value="" style="rounded=1;whiteSpace=wrap;html=1;fontSize=12;fontStyle=1;dashed=1;fillColor=#ffe6cc;strokeColor=#d79b00;" vertex="1" parent="1">
          <mxGeometry x="380" y="293.13" width="20" height="22.5" as="geometry" />
        </mxCell>
        <mxCell id="sKilx8R5C69KUGso1vn--20" value="" style="verticalLabelPosition=bottom;sketch=0;aspect=fixed;html=1;verticalAlign=top;strokeColor=none;align=center;outlineConnect=0;shape=mxgraph.citrix.license_server;fontSize=14;" vertex="1" parent="1">
          <mxGeometry x="384.74" y="297.5" width="10.52" height="13.75" as="geometry" />
        </mxCell>
      </root>
    </mxGraphModel>
  </diagram>
</mxfile>
